<svg xmlns="http://www.w3.org/2000/svg" viewBox="0 0 814 2378.93"><defs><style>.cls-1{font-size:24.26px;font-family:Palanquin-Bold, Palanquin;}.cls-1,.cls-2{fill:#2e0069;font-weight:700;}.cls-2{font-size:36px;font-family:Poppins-SemiBold, Poppins;}.cls-3{fill:#5f00a7;}.cls-4{fill:#fff;}.cls-5{fill:red;}.cls-10,.cls-11,.cls-13,.cls-16,.cls-6,.cls-8{fill:none;stroke-miterlimit:10;}.cls-6{stroke:red;}.cls-7{fill:#9d00b2;}.cls-8{stroke:#9d00b2;}.cls-9{fill:#d30045;}.cls-10{stroke:#d30045;}.cls-11{stroke:#c00072;}.cls-12{fill:#c00072;}.cls-13{stroke:#4c0097;}.cls-14{fill:#4c0097;}.cls-15{fill:#8000b1;}.cls-16{stroke:#2e0069;stroke-width:10px;}</style></defs><title>flowchart1</title><g id="Layer_2" data-name="Layer 2"><g id="Layer_1-2" data-name="Layer 1"><text class="cls-1" transform="translate(421.89 2254.06)">After making sure <tspan x="0" y="29.12">that it’s 101% awesome,</tspan><tspan x="0" y="58.23">we unleash it,</tspan><tspan x="0" y="87.35">to the world</tspan></text><text class="cls-2" transform="translate(421.89 2200.79)">Step 7</text><circle class="cls-3" cx="232.3" cy="2276.54" r="77.99"/><path class="cls-4" d="M232.3,2269.57a10.44,10.44,0,1,0-10.45-10.44A10.43,10.43,0,0,0,232.3,2269.57Zm0-17.4a7,7,0,1,1-7,7A7,7,0,0,1,232.3,2252.17Z"/><path class="cls-4" d="M214.89,2306.13a1.74,1.74,0,0,0,1.72-1.49l1.32-9.2a1.73,1.73,0,0,1,1.72-1.49H225l-1.32,6.61a1.74,1.74,0,0,0,1.36,2.05,1.34,1.34,0,0,0,.35,0h13.92a1.74,1.74,0,0,0,1.74-1.74,2,2,0,0,0,0-.35l-1.33-6.61H245a1.73,1.73,0,0,1,1.72,1.49l1.31,9.2a1.75,1.75,0,0,0,1.18,1.4,1.67,1.67,0,0,0,.55.09,1.73,1.73,0,0,0,1.23-.51,22.23,22.23,0,0,0,0-31.43,21.47,21.47,0,0,0-1.81-1.63v0a42.61,42.61,0,0,0-15.85-47.87,1.74,1.74,0,0,0-2,0,42.61,42.61,0,0,0-15.86,47.87l0,0a22.24,22.24,0,0,0-3.42,31.25,21.47,21.47,0,0,0,1.63,1.81A1.73,1.73,0,0,0,214.89,2306.13Zm22.25-7h-9.68l1-5.22h7.59Zm16.77-10.84a18.7,18.7,0,0,1-3,11.9l-.75-5.28a5.26,5.26,0,0,0-5.17-4.49h-1.56l4.61-14.34A18.78,18.78,0,0,1,253.91,2288.33Zm-21.61-60.11A39.33,39.33,0,0,1,242.59,2240H222A39.19,39.19,0,0,1,232.3,2228.22Zm-12,15.24h24.08a39.17,39.17,0,0,1,1.51,28l-.39,1.2h0l-5.73,17.82H224.86l-5.73-17.82h0l-.38-1.2A39.12,39.12,0,0,1,220.26,2243.46Zm-9.58,44.87a18.79,18.79,0,0,1,5.92-12.21l4.61,14.34h-1.56a5.26,5.26,0,0,0-5.17,4.49l-.75,5.28a18.71,18.71,0,0,1-3-11.9Z"/><path class="cls-4" d="M194,2328.76h3.48a17.23,17.23,0,0,0-3.65-10.64,10.4,10.4,0,0,1,4.33-4,.06.06,0,0,0,.05,0,10.3,10.3,0,0,1,4.5-1,10.47,10.47,0,0,1,8.48,4.41,13,13,0,0,0-1.52,6h3.48a9.41,9.41,0,0,1,1.45-5h0l.08-.09a8.67,8.67,0,0,1,10.67-3.06v4.56h3.48V2306h-3.48v5.68a12.08,12.08,0,0,0-12,2.92,13.86,13.86,0,0,0-14.4-4.46,17.32,17.32,0,0,0-17.14-14.44h-1.74v3.48h1.74a13.84,13.84,0,0,1,13.81,12.43,14.2,14.2,0,0,0-4.3,3.9,17.33,17.33,0,0,0-11.25-4.15v3.48A13.94,13.94,0,0,1,194,2328.76Z"/><path class="cls-4" d="M265.64,2310.13a13.86,13.86,0,0,0-14.4,4.46,12.07,12.07,0,0,0-12-2.93V2306h-3.48v13.92h3.48v-4.55a8.68,8.68,0,0,1,10.67,3,.7.7,0,0,0,.08.1h0a9.41,9.41,0,0,1,1.45,5h3.48a13.1,13.1,0,0,0-1.52-6,10.35,10.35,0,0,1,13-3.38l.05,0a10.55,10.55,0,0,1,4.34,4,17.25,17.25,0,0,0-3.67,10.64h3.48a14,14,0,0,1,13.93-13.93v-3.48a17.29,17.29,0,0,0-11.25,4.15,14.12,14.12,0,0,0-4.31-3.9,13.85,13.85,0,0,1,13.82-12.43h1.74v-3.48h-1.74A17.31,17.31,0,0,0,265.64,2310.13Z"/><rect class="cls-4" x="223.59" y="2274.8" width="3.48" height="3.48"/><rect class="cls-4" x="230.56" y="2274.8" width="3.48" height="3.48"/><rect class="cls-4" x="237.52" y="2274.8" width="3.48" height="3.48"/><rect class="cls-4" x="199.22" y="2316.57" width="3.48" height="3.48"/><rect class="cls-4" x="180.08" y="2288.72" width="3.48" height="3.48"/><rect class="cls-4" x="277.56" y="2304.39" width="3.48" height="3.48"/><rect class="cls-4" x="263.63" y="2297.43" width="3.48" height="3.48"/><rect class="cls-4" x="244.48" y="2325.28" width="3.48" height="3.48"/><rect class="cls-4" x="281.04" y="2285.24" width="3.48" height="3.48"/><path class="cls-3" d="M318.81,2226.59a99.72,99.72,0,1,0,13.41,49.95A100,100,0,0,0,318.81,2226.59Zm-10.4,103.24a92.78,92.78,0,1,1,16.84-53.29A92.89,92.89,0,0,1,308.41,2329.83Z"/><text class="cls-1" transform="translate(399.89 137.44)">We brainstorm!</text><text class="cls-2" transform="translate(399.89 84.17)">Step 1</text><circle class="cls-5" cx="254.3" cy="100.42" r="77.99"/><rect class="cls-4" x="253.1" y="49.85" width="2.4" height="7.2"/><rect class="cls-4" x="275.86" y="58.85" width="8.49" height="2.4" transform="translate(39.58 215.66) rotate(-45)"/><rect class="cls-4" x="227.29" y="55.81" width="2.4" height="8.49" transform="translate(24.46 179.15) rotate(-45)"/><path class="cls-4" d="M285.87,82.57a9.59,9.59,0,0,0-10.6-13.34,9.58,9.58,0,0,0-12.88-5.34,9.59,9.59,0,0,0-16.18,0,9.59,9.59,0,0,0-12.89,5.34,9.38,9.38,0,0,0-1.83-.18,9.62,9.62,0,0,0-9.61,9.61,9.43,9.43,0,0,0,.85,3.91,9.6,9.6,0,0,0,5.16,17.7h10.2v-2.4h-10.2a7.2,7.2,0,0,1-3-13.73,1.18,1.18,0,0,0,.64-.74,1.21,1.21,0,0,0-.13-1,7.19,7.19,0,0,1,6.13-11,7,7,0,0,1,2.26.37A1.21,1.21,0,0,0,235.3,71a7.17,7.17,0,0,1,10.76-4.44,1.21,1.21,0,0,0,1.72-.52,7.19,7.19,0,0,1,13,0,1.18,1.18,0,0,0,.74.64,1.2,1.2,0,0,0,1-.12,7.11,7.11,0,0,1,3.76-1.08,7.18,7.18,0,0,1,7,5.52,1.19,1.19,0,0,0,1.54.86,7.06,7.06,0,0,1,2.27-.37,7.19,7.19,0,0,1,6.13,11,1.21,1.21,0,0,0-.13,1,1.18,1.18,0,0,0,.64.74,7.2,7.2,0,0,1-3,13.73,1.2,1.2,0,0,0-1.2,1.2v5c-4.73-.6-8.4-2.33-8.4-5a1.2,1.2,0,0,0-1.2-1.2h-6.16v2.4h5c.24,3.9,5.73,6.3,11.95,6.3a1.2,1.2,0,0,0,1.2-1.2v-5.18a9.6,9.6,0,0,0,4-17.62Z"/><path class="cls-4" d="M242,119.33a1.18,1.18,0,0,0,.57.15,1.21,1.21,0,0,0,1-.48l19.21-25.21a1.22,1.22,0,0,0,.12-1.26,1.2,1.2,0,0,0-1.08-.67h-7.56l5-9a1.2,1.2,0,0,0,0-1.19,1.22,1.22,0,0,0-1-.59H245a1.19,1.19,0,0,0-1.18,1l-2.4,15.6a1.18,1.18,0,0,0,.27,1,1.22,1.22,0,0,0,.91.42h5.51l-6.64,18.81a1.2,1.2,0,0,0,.56,1.45Zm8.91-21.06a1.23,1.23,0,0,0-.15-1.1,1.19,1.19,0,0,0-1-.5H244l2-13.21h10.14l-5,9a1.2,1.2,0,0,0,1,1.79h7.18l-13.11,17.2Z"/><path class="cls-4" d="M243.91,132.6c5.16,0,6.76,4,6.76,9.24s-1.6,9.33-6.76,9.33-6.77-4-6.77-9.33S238.74,132.6,243.91,132.6Zm0,3.25c-3,0-3.31,2.86-3.31,6s.35,6.07,3.31,6.07,3.31-2.81,3.31-6.07S246.86,135.85,243.91,135.85Z"/><path class="cls-4" d="M256.92,133.37a4.08,4.08,0,1,1-4,4.06A3.77,3.77,0,0,1,256.92,133.37Zm-1.41,4.06c0,1.38.53,2,1.38,2s1.43-.6,1.43-2-.55-2-1.43-2S255.51,136.06,255.51,137.43Zm10.08-3.76H269l-9.85,17.55h-3.41Zm2.33,9.7a4.08,4.08,0,1,1-4,4.06A3.73,3.73,0,0,1,267.92,143.37Zm-1.45,4.06c0,1.41.55,2,1.43,2s1.4-.57,1.4-2-.55-2-1.4-2S266.47,146.06,266.47,147.43Z"/><path class="cls-6" d="M340.81,50.47a99.72,99.72,0,1,0,13.41,50A100,100,0,0,0,340.81,50.47Zm-10.4,103.25a92.79,92.79,0,1,1,16.84-53.3A92.91,92.91,0,0,1,330.41,153.72Z"/><text class="cls-1" transform="translate(399.89 1552.19)">We mix them up<tspan x="0" y="29.12">in our patented</tspan><tspan x="0" y="58.23">“Cement Mixer 9000 tm”</tspan></text><text class="cls-2" transform="translate(399.89 1498.91)">Step 5</text><circle class="cls-7" cx="254.3" cy="1548.16" r="77.99"/><path class="cls-4" d="M293.32,1550.82V1533a7.21,7.21,0,0,0-7.2-7.19h-9.6a4.6,4.6,0,0,0-3.63,1.78l0-.06-3.83-5.75a29.39,29.39,0,0,0-8.71-8.53l-1.1-.7a29.58,29.58,0,0,0-15.85-4.61h-4.86a1.19,1.19,0,0,0-1,.61L235,1513l-8.64-2.16a1.2,1.2,0,0,0-1.45.87l0,.17-1.19,11.91a1.2,1.2,0,0,0,.9,1.28l4.76,1.19.29,0a1.2,1.2,0,0,0,1-.62l1.91-3.44,1.16,1.92V1533h-6a1.19,1.19,0,0,0-1.19,1.19v8.34h-1.19a1.19,1.19,0,0,0-1.19,1.19v7.15a1.19,1.19,0,0,0,1.19,1.19H229a4.83,4.83,0,1,0,.66-2.38h-3v-4.77h45.27v4.77H247.38A4.74,4.74,0,1,0,248,1552h29.79a4.77,4.77,0,0,0,9.53,0h4.76A1.19,1.19,0,0,0,293.32,1550.82ZM245.66,1552a2.39,2.39,0,1,1-2.38-2.38A2.39,2.39,0,0,1,245.66,1552Zm-14.3,0a2.39,2.39,0,1,1,2.39,2.38A2.38,2.38,0,0,1,231.36,1552Zm48.85,0a2.39,2.39,0,1,1,2.38,2.38A2.38,2.38,0,0,1,280.21,1552Zm-8.34-9.53H245.66v-1.19a3.57,3.57,0,0,0-3.57-3.58,1.19,1.19,0,0,1-1.2-1.19V1533a28.94,28.94,0,0,0,12.77,6.35l.19.11,0-.06a29.55,29.55,0,0,0,6.15.67h5.88a1.22,1.22,0,0,0,1-.62l4.91-8.85Zm-28.59,0h-7.15v-19.06a1.19,1.19,0,1,1,2.38,0v13.1a3.58,3.58,0,0,0,3.58,3.58,1.19,1.19,0,0,1,1.19,1.19Zm-14.3,0v-2.38h4.77v2.38Zm4.77-7.15v2.38H229v-2.38Zm.05-20.19-4.75,8.56-2.88-.71,1-9.52Zm9.57-4.83a26.64,26.64,0,0,1,4.27.35l-7,11.59a3.53,3.53,0,0,0-4.49-2.22,3.57,3.57,0,0,0-1.52,1l-.74-1.22,5.28-9.51Zm19.63,8-10.31,18.33a26.68,26.68,0,0,1-11.8-6.88v-3.27l9.21-15.35a27,27,0,0,1,7.84,3.37l1.1.7A27.6,27.6,0,0,1,263,1518.35Zm7.48,9.89-5.27,9.47H260a26.38,26.38,0,0,1-4.93-.46l9.63-17.11a27.74,27.74,0,0,1,2.32,3Zm19.77,2.32H277.83a1.19,1.19,0,0,0-1.19,1.2v7.14a1.19,1.19,0,0,0,1.19,1.2h6.65l2,2a1.19,1.19,0,0,0,.84.35h3.57v2.38h-2.38v2.38h2.38v2.39H286.7a4.72,4.72,0,0,0-8.21,0h-4.24v-19.19a2.27,2.27,0,0,1,2.27-2.26h9.61A4.78,4.78,0,0,1,290.25,1530.56Zm.68,2.43v7.11h-3.08l-2-2a1.22,1.22,0,0,0-.84-.35h-6V1533h11.91Z"/><path class="cls-4" d="M233.83,1585.25c0-2.63,2-4.91,6.17-4.91s6.17,2.31,6.17,4.91a4.4,4.4,0,0,1-2.49,4,4.68,4.68,0,0,1,2.94,4.49c0,3.48-2.86,5.59-6.62,5.59s-6.59-2.11-6.59-5.59a4.63,4.63,0,0,1,2.93-4.49A4.31,4.31,0,0,1,233.83,1585.25Zm3,8.38c0,1.63,1.21,2.83,3.21,2.83s3.18-1.23,3.18-2.83c0-1.81-1.3-2.81-3.18-2.81S236.79,1591.77,236.79,1593.63Zm6-7.87a2.75,2.75,0,0,0-5.49,0,2.49,2.49,0,0,0,2.73,2.48A2.52,2.52,0,0,0,242.76,1585.76Z"/><path class="cls-4" d="M256.17,1580.34c5.16,0,6.77,4,6.77,9.25s-1.61,9.32-6.77,9.32-6.77-4-6.77-9.32S251,1580.34,256.17,1580.34Zm0,3.26c-3,0-3.31,2.86-3.31,6s.35,6.07,3.31,6.07,3.31-2.81,3.31-6.07S259.13,1583.6,256.17,1583.6Z"/><path class="cls-4" d="M269.18,1581.12a4.07,4.07,0,1,1-4,4.06A3.76,3.76,0,0,1,269.18,1581.12Zm-1.41,4.06c0,1.38.53,2,1.38,2s1.43-.6,1.43-2-.55-2-1.43-2S267.77,1583.8,267.77,1585.18Zm10.08-3.76h3.43L271.43,1599H268Zm2.33,9.7a4.08,4.08,0,1,1-4,4.06A3.73,3.73,0,0,1,280.18,1591.12Zm-1.45,4.06c0,1.4.55,2,1.43,2s1.4-.58,1.4-2-.55-2-1.4-2S278.73,1593.8,278.73,1595.18Z"/><path class="cls-8" d="M254.3,1648.08a99.92,99.92,0,1,1,99.92-99.92A100,100,0,0,1,254.3,1648.08Zm0-192.87a93,93,0,1,0,92.95,93A93.06,93.06,0,0,0,254.3,1455.21Z"/><path class="cls-7" d="M340.81,1498.22a100,100,0,0,0-86.51-50v7a93,93,0,1,1-85.45,56.38l-6.4-2.75a99.93,99.93,0,1,0,178.36-10.62Z"/><text class="cls-1" transform="translate(397.89 434.13)">Our writers write <tspan x="0" y="29.12">the script</tspan><tspan x="0" y="58.23">and storyboard, </tspan><tspan x="0" y="87.35">while our designer </tspan><tspan x="0" y="116.46">start world building</tspan></text><text class="cls-2" transform="translate(397.89 380.85)">Step 2</text><circle class="cls-9" cx="252.3" cy="457.11" r="77.99"/><path class="cls-4" d="M286.24,422.94l-38.08-15.42a4.06,4.06,0,0,0-2.66-1,4.1,4.1,0,0,0-3.47,1.94l-23.89,14.58a1.38,1.38,0,0,0-.66,1.16v5.44a1.36,1.36,0,0,0,1.36,1.36h1.36v6.8a1.36,1.36,0,0,0,1.36,1.36h11.7a1.36,1.36,0,0,0,1.36-1.36V431h2.72v31.15h-4.08a4.08,4.08,0,0,0-4.08,4.07v8.57a1.36,1.36,0,0,0,1.36,1.36h29.92a1.36,1.36,0,0,0,1.36-1.36v-8.57a4.08,4.08,0,0,0-4.08-4.07h-4.08V431h19.85v5.54a1.39,1.39,0,0,0,.4,1l2.32,2.32V448a4.08,4.08,0,1,0,5.06,5.59,1.36,1.36,0,0,0-2.46-1.16,1.39,1.39,0,0,1-1.24.78,1.36,1.36,0,1,1,0-2.72A1.36,1.36,0,0,0,279,449.1v-9.27l2.33-2.32a1.38,1.38,0,0,0,.39-1V431h4.08a1.36,1.36,0,0,0,1.36-1.36v-5.44h0A1.37,1.37,0,0,0,286.24,422.94Zm-66,5.35V425.4l17.14-2.35v5.24Zm19.86,10.56,9,9.3h-9Zm1.85-2h9v9.29Zm-1.85-2.72v-9.29l9,9.29Zm1.36-14h-2.91L225.11,422l16.31-10Zm-1.36,32.73,9,9.3h-9Zm1.85-2h9v9.29Zm0-28h9v9.3Zm10.5-2.71h-2.83V411L277,422.14Zm-6.91-10.89a1.36,1.36,0,0,1,1.36,1.36v9.52h-2.72v-9.52A1.36,1.36,0,0,1,245.5,409.25Zm-13.6,27.2h-9V431h9Zm27.2,29.78v7.21H231.9v-7.21a1.36,1.36,0,0,1,1.36-1.35h24.48A1.36,1.36,0,0,1,259.1,466.23ZM279,436l-1.36,1.36L276.23,436v-5H279Zm5.44-7.69H253.66V423l30.73,2.5Z"/><path class="cls-4" d="M227.75,505.05c4.13-3.51,8.47-6.74,8.47-10.1,0-1.63-.73-2.73-2.46-2.73s-2.61,1.2-2.63,3.13h-3.41c.13-4.19,2.81-6.12,6.09-6.12,3.94,0,5.92,2.33,5.92,5.52,0,4.23-4.09,7.54-7,10h7.4v2.9H227.75Z"/><path class="cls-4" d="M249.1,489.28c5.17,0,6.77,4,6.77,9.25s-1.6,9.33-6.77,9.33-6.76-4-6.76-9.33S243.94,489.28,249.1,489.28Zm0,3.26c-3,0-3.31,2.86-3.31,6s.35,6.07,3.31,6.07,3.31-2.81,3.31-6.07S252.06,492.54,249.1,492.54Z"/><path class="cls-4" d="M262.11,490.06a4.08,4.08,0,1,1-4,4.06A3.77,3.77,0,0,1,262.11,490.06Zm-1.4,4.06c0,1.38.52,2,1.38,2s1.43-.6,1.43-2-.56-1.95-1.43-1.95S260.71,492.74,260.71,494.12Zm10.07-3.76h3.44l-9.85,17.55H261Zm2.33,9.7a4.08,4.08,0,1,1-4,4.06A3.73,3.73,0,0,1,273.11,500.06Zm-1.45,4.06c0,1.4.55,2,1.43,2s1.4-.58,1.4-2-.55-1.95-1.4-1.95S271.66,502.74,271.66,504.12Z"/><path class="cls-10" d="M252.3,557a99.92,99.92,0,1,1,99.92-99.91A100,100,0,0,1,252.3,557Zm0-192.87a93,93,0,1,0,92.95,93A93.06,93.06,0,0,0,252.3,364.15Z"/><path class="cls-9" d="M332.78,410.64l6-3.48a100,100,0,0,0-86.51-50v7A93,93,0,0,1,332.78,410.64Z"/><text class="cls-1" transform="translate(389.97 812.81)">Our designers start<tspan x="0" y="29.12">to bring the storyboard</tspan><tspan x="0" y="58.23">to their world through</tspan><tspan x="0" y="87.35">dope animation</tspan></text><text class="cls-2" transform="translate(389.97 759.54)">Step 3</text><circle class="cls-11" cx="244.22" cy="819.93" r="99.92"/><circle class="cls-11" cx="244.22" cy="819.93" r="92.96"/><path class="cls-12" d="M330.89,769.71a100,100,0,0,0-86.51-50v7A92.91,92.91,0,0,1,320.5,873l5.7,4a99.72,99.72,0,0,0,4.69-107.24Z"/><circle class="cls-12" cx="244.22" cy="819.93" r="77.99"/><path class="cls-4" d="M227.4,867.17h-8.78v-2.76l8.2-11.73h4.08v11.43h2.21v3.06H230.9v3.56h-3.5Zm.22-3.06v-7.67l-5.14,7.67Z"/><path class="cls-4" d="M242.11,852.1c5.16,0,6.77,4,6.77,9.25s-1.61,9.33-6.77,9.33-6.77-4-6.77-9.33S237,852.1,242.11,852.1Zm0,3.26c-3,0-3.31,2.86-3.31,6s.35,6.07,3.31,6.07,3.31-2.81,3.31-6.07S245.07,855.36,242.11,855.36Z"/><path class="cls-4" d="M255.12,852.88a4.08,4.08,0,1,1-4,4.06A3.78,3.78,0,0,1,255.12,852.88Zm-1.4,4.06c0,1.38.52,2,1.38,2s1.42-.6,1.42-2-.55-2-1.42-2S253.72,855.56,253.72,856.94Zm10.07-3.76h3.44l-9.85,17.55H254Zm2.33,9.7a4.08,4.08,0,1,1-4,4.06A3.73,3.73,0,0,1,266.12,862.88Zm-1.45,4.06c0,1.41.55,2,1.43,2s1.4-.57,1.4-2-.55-2-1.4-2S264.67,865.56,264.67,866.94Z"/><path class="cls-4" d="M226.1,837.84A1.14,1.14,0,0,0,225,836.7h-5.35v-7.63h49.21v7.63H229.53a1.14,1.14,0,1,0,0,2.28H270a1.15,1.15,0,0,0,1.15-1.14v-9.91h0V796.81a6.81,6.81,0,0,0,2.6-5.36v-21a1.15,1.15,0,0,0-1.14-1.15H215.86a1.15,1.15,0,0,0-1.14,1.15v21a6.79,6.79,0,0,0,2.61,5.36v41a1.14,1.14,0,0,0,1.14,1.14H225A1.14,1.14,0,0,0,226.1,837.84Zm-1.19-26.5a2.24,2.24,0,0,1-.26,1.29,2.65,2.65,0,0,1-.91.85h0a9.36,9.36,0,0,1-4.13.95v-1.69h0A13.3,13.3,0,0,0,224.91,811.34Zm-5.3,15.45V816.72a11.9,11.9,0,0,0,5.12-1.17,31.73,31.73,0,0,1,4.1,11.24Zm20.68,0v-7.52c0,.41,3.47.49,3.93.49a15.71,15.71,0,0,0,3.92-.49v7.52Zm.76-21.47a2.5,2.5,0,0,1-2.34,1.78,2.44,2.44,0,1,1,0-4.87,2.43,2.43,0,0,1,2.43,2.44A2.37,2.37,0,0,1,241.05,805.32ZM236.83,809a2.14,2.14,0,0,1,.54.18,4.75,4.75,0,0,0,5.48-2.27c0-.06.07-.12.1-.19l0-.06.06-.12a13.29,13.29,0,0,1,2.36,0l.06.12,0,.06a4.76,4.76,0,0,0,5.31,2.53,5.15,5.15,0,0,0,.76-.24h.05a5,5,0,0,1,1.14,1.52l0,0a19.33,19.33,0,0,1-6.19,1.43c-.77.07-1.54.1-2.31.1a24,24,0,0,1-6.8-.91,16.39,16.39,0,0,1-1.7-.62l0,0a7.14,7.14,0,0,1,.64-1c.1-.12.32-.45.47-.5Zm14.06-2.22a2.38,2.38,0,0,1-1.17.31,2.48,2.48,0,0,1-2.43-2.44,2.44,2.44,0,1,1,4.87,0A2.48,2.48,0,0,1,250.89,806.79Zm-15.12,6.29a25.54,25.54,0,0,0,9.15,1.27h.21a26.26,26.26,0,0,0,6.23-.9,8.66,8.66,0,0,0,1.58-.54,5,5,0,0,1-2.31,2.83,11.77,11.77,0,0,1-6.41,1.75c-3,0-7-1-8.46-3.89a3.91,3.91,0,0,1-.27-.67C235.51,813,235.61,813,235.77,813.08Zm33-.34h0v1.69a12.74,12.74,0,0,1-2.75-.38c-1.32-.37-2.68-1.13-2.54-2.7A13.2,13.2,0,0,0,268.79,812.74Zm0-14.75v12.46h-.07a10.18,10.18,0,0,1-6.77-3.17c-2.33-2.58-3.24-6.24-3.56-9.64a6.81,6.81,0,0,0,2.82-2.4h0a6.87,6.87,0,0,0,6.67,2.94A3.85,3.85,0,0,0,268.82,798Zm-40.47-6.54V788.1h9.05v3.35a4.53,4.53,0,1,1-9.05,0Zm11.34-2.51v-.84h9.06v3.35a4.54,4.54,0,0,1-4.53,4.53h0a4.53,4.53,0,0,1-4.53-4.53v-2.51Zm11.34,0v-.84h9.06v3.35a4.58,4.58,0,0,1-2.65,4.12,4.53,4.53,0,0,1-6.41-4.12v-2.51Zm20.4,2.51a4.53,4.53,0,0,1-9.06,0V788.1h9.06Zm0-5.63h-9.06V771.64h9.06Zm-11.34,0H251V771.64h9.06Zm-11.34,0h-9.06V771.64h9.06Zm-11.35,0h-9.05V771.64h9.05ZM217,771.64h9.06v14.18H217Zm0,16.46h9.06v3.35a4.53,4.53,0,0,1-9.06,0Zm4.53,10.17a6.8,6.8,0,0,0,5.67-3,6.88,6.88,0,0,0,2.81,2.4,22.81,22.81,0,0,1-.85,4.56,1.14,1.14,0,0,0,.77,1.42,1,1,0,0,0,.33,0,1.14,1.14,0,0,0,1.09-.81,25.61,25.61,0,0,0,.9-4.61q.3,0,.63,0a6.83,6.83,0,0,0,5.67-3,6.81,6.81,0,0,0,11.34,0,6.81,6.81,0,0,0,5.67,3l.63,0a21,21,0,0,0,2.72,8.74,12.37,12.37,0,0,0,2.58,3,4.75,4.75,0,0,0,.33,3.82l.15.22a27.13,27.13,0,0,0-1.62,2.92,1.14,1.14,0,0,0,2,1c.5-1,1-1.82,1.3-2.38a11.9,11.9,0,0,0,5.12,1.17v10.07h-9.21a34.18,34.18,0,0,1,1-4.39,1.14,1.14,0,0,0-2.18-.67,36.1,36.1,0,0,0-1.18,5.06h-6.86v-8.33a11.9,11.9,0,0,0,1.49-.83,6.85,6.85,0,0,0,3.44-5.64,5.07,5.07,0,0,0-.11-1.1,6.59,6.59,0,0,0-1.82-3.31,4.64,4.64,0,0,0,1-2.91,4.72,4.72,0,0,0-9.42-.44c-.54,0-1.08,0-1.63,0a4.72,4.72,0,1,0-8.4,3.35,6.59,6.59,0,0,0-1.82,3.31s0,.08,0,.12a5.33,5.33,0,0,0-.09,1,6.85,6.85,0,0,0,3.44,5.64,12,12,0,0,0,1.5.83v8.33h-6.87a36,36,0,0,0-2.93-9.6,31,31,0,0,0-1.56-2.89c-.07-.1-.12-.2-.18-.28l.14-.22A4.76,4.76,0,0,0,227,810a12,12,0,0,0,2-2.14,1.14,1.14,0,0,0-.24-1.6,1.16,1.16,0,0,0-1.6.24,9.85,9.85,0,0,1-6.59,3.87l-.81.09h-.09V798A6.81,6.81,0,0,0,221.53,798.27Z"/><text class="cls-1" transform="translate(399.89 1190.5)">Our developers<tspan x="0" y="29.12">start to do some</tspan><tspan x="0" y="58.23">mad coding magic</tspan></text><text class="cls-2" transform="translate(399.89 1137.23)">Step 4</text><path class="cls-13" d="M254.3,1286.4a99.92,99.92,0,1,1,99.92-99.92A100,100,0,0,1,254.3,1286.4Zm0-192.88a93,93,0,1,0,92.95,93A93.06,93.06,0,0,0,254.3,1093.52Z"/><path class="cls-14" d="M340.81,1136.53a100,100,0,0,0-86.51-50v7A93,93,0,1,1,206,1265.85l-5.21,5a99.88,99.88,0,0,0,140.05-134.28Z"/><circle class="cls-14" cx="254.3" cy="1186.48" r="77.99"/><path class="cls-4" d="M240.45,1223.57a2.39,2.39,0,0,0-2.63-2.11c-2.28,0-3.33,1.71-3.38,5.92a4.86,4.86,0,0,1,4.26-2.13c3.26,0,5.54,2.15,5.54,6,0,3.54-2.18,6.12-6.09,6.12-5.41,0-6.77-3.81-6.77-9.48,0-6,1.93-9.27,6.57-9.27a5.36,5.36,0,0,1,5.76,5Zm-5.68,7.59a2.93,2.93,0,0,0,3.2,3.19,2.79,2.79,0,0,0,2.94-3.06c0-1.88-1-3.16-3-3.16A2.9,2.9,0,0,0,234.77,1231.16Z"/><path class="cls-4" d="M253.79,1218.66c5.16,0,6.77,4,6.77,9.24s-1.61,9.33-6.77,9.33-6.77-4-6.77-9.33S248.63,1218.66,253.79,1218.66Zm0,3.25c-3,0-3.31,2.86-3.31,6s.35,6.07,3.31,6.07,3.31-2.81,3.31-6.07S256.75,1221.91,253.79,1221.91Z"/><path class="cls-4" d="M266.8,1219.43a4.08,4.08,0,1,1-4,4.06A3.78,3.78,0,0,1,266.8,1219.43Zm-1.4,4.06c0,1.38.52,2,1.38,2s1.42-.6,1.42-2-.55-2-1.42-2S265.4,1222.11,265.4,1223.49Zm10.07-3.76h3.44l-9.85,17.55h-3.41Zm2.33,9.7a4.08,4.08,0,1,1-4,4.06A3.73,3.73,0,0,1,277.8,1229.43Zm-1.45,4.06c0,1.41.55,2,1.43,2s1.4-.57,1.4-2-.55-2-1.4-2S276.35,1232.11,276.35,1233.49Z"/><path class="cls-4" d="M265.88,1163l-37.88.08a4.61,4.61,0,0,0,0,9.21h3.53l.06,27.42c0,7.79,30.84,7.76,30.82-.06l-.05-27.43h3.53a4.61,4.61,0,0,0,0-9.22Zm-5.55,12.93h-5.86a1,1,0,0,0,0,2l5.85,0v4l-20.22,0a1,1,0,0,0,0,2l20.21,0,0,15.61c0,.58-.92,1.58-3.52,2.46-5.38,1.82-14.25,1.86-19.69,0-2.6-.87-3.52-1.86-3.52-2.45l0-15.61H236a1,1,0,1,0,0-2h-2.42v-4l16.78,0a1,1,0,1,0,0-2l-16.78,0v-3.7l26.73,0Zm5.56-5.76-37.88.07a2.56,2.56,0,1,1,0-5.12l37.88-.07a2.56,2.56,0,1,1,0,5.12Z"/><path class="cls-4" d="M226,1161.43a1.15,1.15,0,0,0,2.28,0c.68-4.6,3.79-5.55,3.94-5.6a1,1,0,0,0-.21-2c-1.86-.1-3.24-2.43-3.74-4.55a1.19,1.19,0,0,0-2.31,0c-.49,2.11-1.86,4.45-3.72,4.56a1,1,0,0,0-.2,2s3.25.9,4,5.58Zm1.12-9.35a7.66,7.66,0,0,0,2.4,2.93,8.35,8.35,0,0,0-2.39,3.08,8.21,8.21,0,0,0-2.4-3.07,7.58,7.58,0,0,0,2.39-2.94Z"/><path class="cls-4" d="M266.5,1144c.13,0,3.26,1,4,5.58a1.15,1.15,0,0,0,2.28,0c.68-4.6,3.79-5.55,3.94-5.59a1,1,0,0,0,.75-1.1,1,1,0,0,0-1-.92c-1.86-.1-3.24-2.43-3.74-4.55a1.19,1.19,0,0,0-2.31,0c-.49,2.12-1.86,4.45-3.72,4.56a1,1,0,0,0-1,.93,1,1,0,0,0,.76,1.09Zm5.08-3.77a7.77,7.77,0,0,0,2.4,2.94,8.22,8.22,0,0,0-2.39,3.07,8.09,8.09,0,0,0-2.4-3.06,7.68,7.68,0,0,0,2.39-3Z"/><path class="cls-4" d="M225.36,1142.53s2.62.73,3.2,4.56a1.13,1.13,0,0,0,2.24,0c.56-3.76,3.07-4.54,3.2-4.58a1,1,0,0,0-.21-2c-1.58-.09-2.66-2.27-3-3.71a1.16,1.16,0,0,0-2.25,0c-.41,1.72-1.51,3.62-3,3.72a1,1,0,0,0-.19,2Zm4.31-3a6.84,6.84,0,0,0,1.75,2.11,7.19,7.19,0,0,0-1.74,2.21,7.08,7.08,0,0,0-1.74-2.19,6.68,6.68,0,0,0,1.73-2.13Z"/><path class="cls-4" d="M290.88,1148.82a3,3,0,0,0-3.82-1.92l-13,4.33a1,1,0,0,0,.64,2c13.77-4.56,13-4.38,13.32-4.38a1,1,0,0,1,.31,1.89l-20.52,6.83-.61-1.84,3.62-1.21a1,1,0,1,0-.65-1.94l-10,3.31a1.8,1.8,0,0,0-1.23,1.71c0,.49.15.65.87,2.89a1.8,1.8,0,0,0,2.27,1.14l26.87-8.94a3,3,0,0,0,1.91-3.82Zm-29.19,10.73-.61-1.84,4.16-1.39.62,1.85Z"/><path class="cls-4" d="M241.16,1140.79l3.23-.39,1.35,11.24a4.63,4.63,0,0,1-4.39,5.53c-3,.36-5.34-1.2-5.72-4.43l3.21-.39c.18,1.35.9,2.11,2.12,2s1.69-1,1.54-2.28Z"/><path class="cls-4" d="M254.93,1155.59c-3.19.38-5.63-1.21-6.05-3.55l3.23-.39a2.12,2.12,0,0,0,2.5,1.42c1.26-.15,1.88-.81,1.79-1.54-.27-2.27-7.28,0-7.84-4.62-.25-2.11,1.43-4,4.57-4.41s5.14,1.08,5.62,3.58l-3.07.37a1.9,1.9,0,0,0-2.33-1.39c-1.2.14-1.76.69-1.67,1.43.28,2.32,7.15,0,7.79,4.67C259.74,1153.34,258,1155.22,254.93,1155.59Z"/><text class="cls-1" transform="translate(413.39 1916.87)">We test it and<tspan x="0" y="29.12">make sure its</tspan><tspan x="0" y="58.23">101% awesome</tspan></text><text class="cls-2" transform="translate(413.39 1863.6)">Step 6</text><path class="cls-3" d="M327.31,1862.9a99.72,99.72,0,1,0,13.41,49.95A100,100,0,0,0,327.31,1862.9Zm-10.4,103.25a92.79,92.79,0,1,1,16.84-53.3A92.92,92.92,0,0,1,316.91,1966.15Z"/><circle class="cls-15" cx="240.8" cy="1912.85" r="77.99"/><path class="cls-4" d="M202.32,1931.51h-9.08v-28.87h-4.66v-8.35h13.74Zm-6.93-2.14h4.78v-32.94h-9.45v4.06h4.67Z"/><path class="cls-4" d="M220.88,1931.42c-9.34,0-14.07-6.39-14.07-19s4.73-18.83,14.07-18.83,14.06,6.34,14.06,18.83S230.21,1931.42,220.88,1931.42Zm0-35.66c-4.32,0-7.36,1.49-9.31,4.57-1.73,2.74-2.61,6.81-2.61,12.11s.88,9.47,2.61,12.23c2,3.1,5,4.6,9.31,4.6s7.35-1.5,9.3-4.6c1.74-2.76,2.62-6.87,2.62-12.23s-.88-9.37-2.61-12.11C228.24,1897.25,225.19,1895.76,220.88,1895.76Zm0,29.4c-7.43,0-7.43-8.27-7.43-12.72,0-2.81.14-6,1.13-8.41a6.84,6.84,0,0,1,12.59,0c1,2.4,1.13,5.6,1.13,8.41C228.3,1916.89,228.3,1925.16,220.88,1925.16Zm0-23.15c-3.85,0-5.28,2.83-5.28,10.43,0,7.81,1.38,10.58,5.28,10.58s5.28-2.77,5.28-10.58C226.16,1904.84,224.73,1902,220.88,1902Z"/><path class="cls-4" d="M250.82,1931.51h-9.07v-28.87h-4.67v-8.35h13.74Zm-6.93-2.14h4.79v-32.94h-9.46v4.06h4.67Z"/><path class="cls-4" d="M284.39,1932.09c-5.3,0-8.72-3.5-8.72-8.92s3.42-8.86,8.72-8.86,8.63,3.48,8.63,8.86S289.63,1932.09,284.39,1932.09Zm0-15.64c-4.05,0-6.58,2.58-6.58,6.72s2.46,6.78,6.58,6.78,6.49-2.54,6.49-6.78S288.39,1916.45,284.39,1916.45Zm-16.16,15.06h-9l20.06-35.83h9Zm-5.35-2.14H267l17.71-31.54h-4.13Zm21.47-1.32c-1.15,0-3.82-.48-3.82-4.88s2.67-4.82,3.82-4.82,3.76.47,3.76,4.82S285.48,1928.05,284.35,1928.05Zm0-7.56c-.55,0-1.68,0-1.68,2.68s1.13,2.73,1.68,2.73,1.62,0,1.62-2.73S284.83,1920.49,284.35,1920.49Zm-21.08-7.6c-5.22,0-8.73-3.58-8.73-8.92s3.51-8.87,8.73-8.87,8.72,3.57,8.72,8.87S268.49,1912.89,263.27,1912.89Zm0-15.64c-4.06,0-6.58,2.58-6.58,6.72s2.52,6.77,6.58,6.77,6.58-2.59,6.58-6.77S267.33,1897.25,263.27,1897.25Zm0,11.6c-1.12,0-3.72-.48-3.72-4.88s2.6-4.82,3.72-4.82,3.82.47,3.82,4.82S264.37,1908.85,263.22,1908.85Zm0-7.56c-.51,0-1.57,0-1.57,2.68s1.1,2.73,1.57,2.73,1.67,0,1.67-2.73S263.76,1901.29,263.22,1901.29Z"/><circle class="cls-16" cx="79.5" cy="97.45" r="14.5"/><path class="cls-16" d="M62,97H26.89A18.89,18.89,0,0,0,8,115.84V442.05A18.9,18.9,0,0,0,26.89,461H65"/><path class="cls-16" d="M65.69,445.2v29.68a1.79,1.79,0,0,0,2.67,1.56l24.73-14a1.79,1.79,0,0,0,.08-3.07L68.44,443.69A1.79,1.79,0,0,0,65.69,445.2Z"/><circle class="cls-16" cx="76.5" cy="823.45" r="14.5"/><path class="cls-16" d="M59,823H23.89A18.89,18.89,0,0,0,5,841.84v326.21A18.9,18.9,0,0,0,23.89,1187H62"/><path class="cls-16" d="M62.69,1171.2v29.68a1.79,1.79,0,0,0,2.67,1.56l24.73-14a1.79,1.79,0,0,0,.08-3.07l-24.73-15.66A1.79,1.79,0,0,0,62.69,1171.2Z"/><circle class="cls-16" cx="737.5" cy="457.45" r="14.5"/><path class="cls-16" d="M755,457h35.11A18.89,18.89,0,0,1,809,475.84V802.05A18.9,18.9,0,0,1,790.11,821H752"/><path class="cls-16" d="M751.31,805.2v29.68a1.79,1.79,0,0,1-2.67,1.56l-24.73-14a1.79,1.79,0,0,1-.08-3.07l24.73-15.66A1.79,1.79,0,0,1,751.31,805.2Z"/><circle class="cls-16" cx="737.5" cy="1185.45" r="14.5"/><path class="cls-16" d="M755,1185h35.11A18.89,18.89,0,0,1,809,1203.84v326.21a18.9,18.9,0,0,1-18.89,18.9H752"/><path class="cls-16" d="M751.31,1533.2v29.68a1.79,1.79,0,0,1-2.67,1.56l-24.73-14a1.79,1.79,0,0,1-.08-3.07l24.73-15.66A1.79,1.79,0,0,1,751.31,1533.2Z"/><circle class="cls-16" cx="737.5" cy="1913.45" r="14.5"/><path class="cls-16" d="M755,1913h35.11A18.89,18.89,0,0,1,809,1931.84v326.21a18.9,18.9,0,0,1-18.89,18.9H752"/><path class="cls-16" d="M751.31,2261.2v29.68a1.79,1.79,0,0,1-2.67,1.56l-24.73-14a1.79,1.79,0,0,1-.08-3.07l24.73-15.66A1.79,1.79,0,0,1,751.31,2261.2Z"/><circle class="cls-16" cx="76.5" cy="1549.45" r="14.5"/><path class="cls-16" d="M59,1549H23.89A18.89,18.89,0,0,0,5,1567.84v326.21A18.9,18.9,0,0,0,23.89,1913H62"/><path class="cls-16" d="M62.69,1897.2v29.68a1.79,1.79,0,0,0,2.67,1.56l24.73-14a1.79,1.79,0,0,0,.08-3.07l-24.73-15.66A1.79,1.79,0,0,0,62.69,1897.2Z"/></g></g></svg>