<svg id="Layer_1" data-name="Layer 1" xmlns="http://www.w3.org/2000/svg" xmlns:xlink="http://www.w3.org/1999/xlink" viewBox="0 0 800 600"><defs><style>.cls-1{mask:url(#mask);filter:url(#luminosity-noclip-5);}.cls-2,.cls-4,.cls-6,.cls-8{mix-blend-mode:multiply;}.cls-2{fill:url(#linear-gradient);}.cls-3{mask:url(#mask-2);filter:url(#luminosity-noclip-6);}.cls-4{fill:url(#linear-gradient-2);}.cls-5{mask:url(#mask-3);filter:url(#luminosity-noclip-7);}.cls-6{fill:url(#linear-gradient-3);}.cls-7{mask:url(#mask-4);filter:url(#luminosity-noclip-8);}.cls-8{fill:url(#linear-gradient-4);}.cls-9{fill:#fbc63d;}.cls-10,.cls-13{fill:#fba62f;}.cls-11{fill:#fab733;}.cls-12{fill:#8a3f15;}.cls-13{font-size:12.31px;font-family:Palanquin-Bold, Palanquin;font-weight:700;}.cls-14{fill:#660acb;}.cls-15,.cls-22,.cls-23{fill:#fff;}.cls-16{fill:#36068a;}.cls-17{mask:url(#mask-5);}.cls-18{fill:url(#linear-gradient-5);}.cls-19{mask:url(#mask-6);}.cls-20{opacity:0.51;fill:url(#linear-gradient-6);}.cls-21{fill:url(#linear-gradient-7);}.cls-22{opacity:0.5;}.cls-23{font-size:65.94px;font-family:SourceHanSansCN-Normal-GBpc-EUC-H, Source Han Sans CN;}.cls-24{mask:url(#mask-7);}.cls-25{fill:url(#linear-gradient-8);}.cls-26{mask:url(#mask-8);}.cls-27{fill:url(#linear-gradient-9);}.cls-28{fill:url(#linear-gradient-10);}.cls-29{fill:url(#linear-gradient-11);}.cls-30{fill:url(#linear-gradient-12);}.cls-31{fill:url(#linear-gradient-13);}.cls-32{fill:url(#linear-gradient-15);}.cls-33{fill:#a24f18;}.cls-34{fill:#dbe6f4;}.cls-35{fill:#5506ac;}.cls-36{fill:url(#linear-gradient-16);}.cls-37{fill:none;}.cls-38{filter:url(#luminosity-noclip-4);}.cls-39{filter:url(#luminosity-noclip-3);}.cls-40{filter:url(#luminosity-noclip-2);}.cls-41{filter:url(#luminosity-noclip);}</style><filter id="luminosity-noclip" x="-11.55" y="-13200.66" width="237.36" height="32766" filterUnits="userSpaceOnUse" color-interpolation-filters="sRGB"><feFlood flood-color="#fff" result="bg"/><feBlend in="SourceGraphic" in2="bg"/></filter><mask id="mask" x="-11.55" y="-13200.66" width="237.36" height="32766" maskUnits="userSpaceOnUse"><g class="cls-41"/></mask><linearGradient id="linear-gradient" x1="124.62" y1="516.88" x2="-0.43" y2="300.16" gradientUnits="userSpaceOnUse"><stop offset="0" stop-color="#fff"/><stop offset="1"/></linearGradient><filter id="luminosity-noclip-2" x="48.08" y="-13200.66" width="751.92" height="32766" filterUnits="userSpaceOnUse" color-interpolation-filters="sRGB"><feFlood flood-color="#fff" result="bg"/><feBlend in="SourceGraphic" in2="bg"/></filter><mask id="mask-2" x="48.08" y="-13200.66" width="751.92" height="32766" maskUnits="userSpaceOnUse"><g class="cls-40"/></mask><linearGradient id="linear-gradient-2" x1="177.56" y1="122.47" x2="556.92" y2="732.48" xlink:href="#linear-gradient"/><filter id="luminosity-noclip-3" x="202.6" y="-13200.66" width="45.31" height="32766" filterUnits="userSpaceOnUse" color-interpolation-filters="sRGB"><feFlood flood-color="#fff" result="bg"/><feBlend in="SourceGraphic" in2="bg"/></filter><mask id="mask-3" x="202.6" y="-13200.66" width="45.31" height="32766" maskUnits="userSpaceOnUse"><g class="cls-39"/></mask><linearGradient id="linear-gradient-3" x1="225.26" y1="586.21" x2="225.26" y2="444.19" gradientUnits="userSpaceOnUse"><stop offset="0"/><stop offset="1" stop-color="#fff"/></linearGradient><filter id="luminosity-noclip-4" x="247.13" y="-13200.66" width="29.9" height="32766" filterUnits="userSpaceOnUse" color-interpolation-filters="sRGB"><feFlood flood-color="#fff" result="bg"/><feBlend in="SourceGraphic" in2="bg"/></filter><mask id="mask-4" x="247.13" y="-13200.66" width="29.9" height="32766" maskUnits="userSpaceOnUse"><g class="cls-38"/></mask><linearGradient id="linear-gradient-4" x1="262.08" y1="588.96" x2="262.08" y2="449.67" xlink:href="#linear-gradient-3"/><filter id="luminosity-noclip-5" x="-11.55" y="373.14" width="237.36" height="226.86" filterUnits="userSpaceOnUse" color-interpolation-filters="sRGB"><feFlood flood-color="#fff" result="bg"/><feBlend in="SourceGraphic" in2="bg"/></filter><mask id="mask-5" x="-11.55" y="373.14" width="237.36" height="226.86" maskUnits="userSpaceOnUse"><g class="cls-1"><polygon class="cls-2" points="225.81 373.14 41.58 476.52 -11.55 452.45 -11.55 600 225.81 600 225.81 373.14"/></g></mask><linearGradient id="linear-gradient-5" x1="140.59" y1="527.72" x2="33.26" y2="341.73" gradientUnits="userSpaceOnUse"><stop offset="0" stop-color="#4506b1"/><stop offset="1" stop-color="#4506b1"/></linearGradient><filter id="luminosity-noclip-6" x="48.08" y="399.45" width="751.92" height="201.4" filterUnits="userSpaceOnUse" color-interpolation-filters="sRGB"><feFlood flood-color="#fff" result="bg"/><feBlend in="SourceGraphic" in2="bg"/></filter><mask id="mask-6" x="48.08" y="399.45" width="751.92" height="201.4" maskUnits="userSpaceOnUse"><g class="cls-3"><path class="cls-4" d="M211.6,507,246,501.75l170.07,99.1H453L265.39,503,251,471.41,548.06,600H800l-.74-55L210.72,400.47a35.55,35.55,0,0,0-26.21,3.75L53,480.17a9.75,9.75,0,0,0-1.66,15.67L166.59,600h190.5Z"/></g></mask><linearGradient id="linear-gradient-6" x1="177.77" y1="122.34" x2="557.13" y2="732.35" gradientUnits="userSpaceOnUse"><stop offset="0" stop-color="#fba62f"/><stop offset="1" stop-color="#fba62f"/></linearGradient><linearGradient id="linear-gradient-7" x1="147.15" y1="196.19" x2="114.53" y2="249.52" gradientUnits="userSpaceOnUse"><stop offset="0" stop-color="#a112dc"/><stop offset="0.19" stop-color="#9510d9"/><stop offset="1" stop-color="#660acb"/></linearGradient><filter id="luminosity-noclip-7" x="202.6" y="500.45" width="45.36" height="100.33" filterUnits="userSpaceOnUse" color-interpolation-filters="sRGB"><feFlood flood-color="#fff" result="bg"/><feBlend in="SourceGraphic" in2="bg"/></filter><mask id="mask-7" x="202.6" y="500.45" width="45.36" height="100.33" maskUnits="userSpaceOnUse"><g class="cls-5"><path class="cls-6" d="M203.25,500.45s-1.54,2,.12,5c4.42,7.9,20.85,13.21,23.57,16.7s3.77,11.91,2.73,18.38S225,600.78,225,600.78h22.88s-4.95-73.52-4-81.82,5.7-12.87,3.33-17.21Z"/></g></mask><linearGradient id="linear-gradient-8" x1="225.28" y1="585.83" x2="225.28" y2="444.43" gradientUnits="userSpaceOnUse"><stop offset="0" stop-color="#36068a"/><stop offset="1" stop-color="#36068a"/></linearGradient><filter id="luminosity-noclip-8" x="247.13" y="478.43" width="29.9" height="122.64" filterUnits="userSpaceOnUse" color-interpolation-filters="sRGB"><feFlood flood-color="#fff" result="bg"/><feBlend in="SourceGraphic" in2="bg"/></filter><mask id="mask-8" x="247.13" y="478.43" width="29.9" height="122.64" maskUnits="userSpaceOnUse"><g class="cls-7"><path class="cls-8" d="M247.24,478.43a14.24,14.24,0,0,0,1.39,8.14c2.08,3.65,11,15.3,10.82,21.8s-5.08,92.7-5.08,92.7H277s-6.31-78.18-4.64-89.3,2.62-7.41,3.13-15.49Z"/></g></mask><linearGradient id="linear-gradient-9" x1="262.02" y1="588.75" x2="262.02" y2="449.72" xlink:href="#linear-gradient-8"/><linearGradient id="linear-gradient-10" x1="245.67" y1="444.96" x2="275.57" y2="444.96" gradientUnits="userSpaceOnUse"><stop offset="0" stop-color="#fba62f"/><stop offset="0.08" stop-color="#e98e48"/><stop offset="0.22" stop-color="#ca6773"/><stop offset="0.38" stop-color="#b14795"/><stop offset="0.53" stop-color="#9d2eb0"/><stop offset="0.68" stop-color="#8f1cc4"/><stop offset="0.84" stop-color="#8712cf"/><stop offset="1" stop-color="#840ed3"/></linearGradient><linearGradient id="linear-gradient-11" x1="203.25" y1="466.35" x2="248.63" y2="466.35" xlink:href="#linear-gradient-10"/><linearGradient id="linear-gradient-12" x1="211.14" y1="363.8" x2="249.98" y2="365.35" xlink:href="#linear-gradient-10"/><linearGradient id="linear-gradient-13" x1="214.76" y1="273.26" x2="253.6" y2="274.82" xlink:href="#linear-gradient-10"/><linearGradient id="linear-gradient-15" x1="201.49" y1="205.36" x2="247.06" y2="236.94" gradientUnits="userSpaceOnUse"><stop offset="0" stop-color="#fba62f"/><stop offset="0.04" stop-color="#f29840"/><stop offset="0.14" stop-color="#de7669"/><stop offset="0.25" stop-color="#cc598c"/><stop offset="0.37" stop-color="#be41a9"/><stop offset="0.49" stop-color="#b32fbf"/><stop offset="0.63" stop-color="#ab22cf"/><stop offset="0.78" stop-color="#a61ad8"/><stop offset="1" stop-color="#a518db"/></linearGradient><linearGradient id="linear-gradient-16" x1="178.87" y1="238" x2="224.44" y2="269.59" xlink:href="#linear-gradient-15"/></defs><title>product-svg-2</title><path class="cls-9" d="M193.23,385.87,30,480.13,29.53,155.4,185.16,64.25a5.07,5.07,0,0,1,7.63,4.37Z"/><path class="cls-10" d="M193.23,385.87l-49.4-28.52-.45-269L180,67.14A8.51,8.51,0,0,1,192.8,74.5Z"/><path class="cls-11" d="M143.83,357.35l49.4,28.52-149.79,87a17.69,17.69,0,0,1-26.58-15.3V431.23Z"/><path class="cls-12" d="M134.51,366.42V333.5L25.73,378.07v32.84a.17.17,0,0,0,0,.1v.05h0A4.48,4.48,0,0,0,28,414.89l7.31,4.23a13.09,13.09,0,0,0,13.07,0l83.88-48.62A4.48,4.48,0,0,0,134.51,366.42Z"/><path class="cls-10" d="M132.25,337.72,48.37,386.33a13,13,0,0,1-13.07,0L28,382.11a4.54,4.54,0,0,1,0-7.86l83.76-48.55a13.32,13.32,0,0,1,13.32,0l7.18,4.16A4.53,4.53,0,0,1,132.25,337.72Z"/><text class="cls-13" transform="matrix(0.89, -0.53, 0, 1, 53.96, 403.92)">Good evening</text><path class="cls-12" d="M134.51,319.31V286.39L25.73,331v32.85a.14.14,0,0,0,0,.09V364h0A4.47,4.47,0,0,0,28,367.78L35.3,372a13,13,0,0,0,13.07,0l83.88-48.62A4.48,4.48,0,0,0,134.51,319.31Z"/><path class="cls-10" d="M132.25,290.61,48.37,339.23a13.09,13.09,0,0,1-13.07,0L28,335a4.54,4.54,0,0,1,0-7.86l83.76-48.54a13.32,13.32,0,0,1,13.32,0l7.18,4.15A4.53,4.53,0,0,1,132.25,290.61Z"/><text class="cls-13" transform="matrix(0.89, -0.53, 0, 1, 49.25, 359.5)">Good afternoon</text><path class="cls-12" d="M152,275.57V242.65L25.73,277.13V310a.14.14,0,0,0,0,.09v.05h0A4.5,4.5,0,0,0,28,314l24.8,14.32a13.11,13.11,0,0,0,13.08,0l83.88-48.62A4.5,4.5,0,0,0,152,275.57Z"/><path class="cls-10" d="M149.75,246.87,65.87,295.48a13.06,13.06,0,0,1-13.08,0L28,281.16a4.54,4.54,0,0,1,0-7.86l83.76-48.54a13.32,13.32,0,0,1,13.32,0L149.75,239A4.53,4.53,0,0,1,149.75,246.87Z"/><text class="cls-13" transform="matrix(0.89, -0.53, 0, 1, 69.44, 313.74)">Good morning</text><polygon class="cls-11" points="194.23 414.36 175.49 399.79 16.86 494.77 16.86 600 194.96 600 194.23 414.36"/><path class="cls-14" d="M196.54,416.41c0-6.68-8-14.37-17-19.1L41.58,476.52,28.6,470,25,472.11a34.76,34.76,0,0,0-17.2,30.05L7.87,600H26.38l-.1-87.41a32.34,32.34,0,0,1,16-28L174.16,407.4a12,12,0,0,1,18.14,10.38L192.53,600h4.24Z"/><path class="cls-15" d="M194.11,418.83a15.9,15.9,0,0,0-23.94-13.7L39.42,481.71a34.2,34.2,0,0,0-16.91,29.55l.1,88.17h4.17l-.09-86a31.78,31.78,0,0,1,15.72-27.48L172.1,410a11.85,11.85,0,0,1,17.84,10.2l.23,179.26h4.17Z"/><path class="cls-16" d="M195.09,419.39a15.9,15.9,0,0,0-23.94-13.69L40.4,482.28a34.17,34.17,0,0,0-16.91,29.55l.1,88.17h4.17l-.1-86a31.84,31.84,0,0,1,15.73-27.49l129.69-76a11.85,11.85,0,0,1,17.84,10.21L191.14,600h4.18Z"/><g class="cls-17"><path class="cls-18" d="M225.81,373.14,41.58,476.52,28.6,470h0c-12.94,5.28-20.53,17.59-20.55,28.9L7.87,600H225.81Z"/></g><g class="cls-19"><path class="cls-20" d="M211.6,507,246,501.75,414.78,600h36.53L265.39,503,251,471.41,548.06,600H800V545.28L210.72,400.47a35.55,35.55,0,0,0-26.21,3.75L53,480.17a9.75,9.75,0,0,0-1.66,15.67L166.59,600H323.16l35.25.85Z"/></g><path class="cls-21" d="M159.8,53.92l-133,77.88a34.74,34.74,0,0,0-17.2,30L10.06,458c0,11.31,26.54,26.61,36.33,21l135.07-78a34.74,34.74,0,0,0,17.38-30.15l-.41-294.75C198.41,63.61,170.57,47.61,159.8,53.92ZM28.57,463.09l-.4-290.81a32.31,32.31,0,0,1,16-27.95L176.05,67.08a12,12,0,0,1,18.14,10.38l.4,291.92a32.32,32.32,0,0,1-16.17,28.05L46.65,473.51A12.05,12.05,0,0,1,28.57,463.09Z"/><path class="cls-15" d="M171.83,64.68,41.08,141.27a34.17,34.17,0,0,0-16.91,29.54l.41,291.25a14.46,14.46,0,0,0,21.69,12.5l132.82-76.69a34.17,34.17,0,0,0,17.09-29.65l-.41-289.84A15.9,15.9,0,0,0,171.83,64.68ZM28.75,458.94l-.4-286a31.78,31.78,0,0,1,15.73-27.48l129.69-76a11.84,11.84,0,0,1,17.83,10.2l.4,287.07a31.8,31.8,0,0,1-15.9,27.58L46.52,469.19A11.85,11.85,0,0,1,28.75,458.94Z"/><path class="cls-16" d="M173,65.38,42.29,142a34.18,34.18,0,0,0-16.91,29.55l.41,291.25a14.45,14.45,0,0,0,21.68,12.49l132.82-76.68a34.2,34.2,0,0,0,17.1-29.65L197,79.08A15.9,15.9,0,0,0,173,65.38ZM30,459.64l-.39-286a31.78,31.78,0,0,1,15.72-27.48l22.48-13.24a7.61,7.61,0,0,1,8.46.48l4.54,3.41a8.22,8.22,0,0,0,9.11.53l38.67-22.63a11.87,11.87,0,0,0,4.33-4.43l10-18a20.13,20.13,0,0,1,7.42-7.6L175,70.21a11.85,11.85,0,0,1,17.84,10.21l.4,287.06a31.83,31.83,0,0,1-15.9,27.59L47.73,469.88A11.85,11.85,0,0,1,30,459.64Z"/><path class="cls-14" d="M87.65,127.05v1.6a1.63,1.63,0,0,0,2.45,1.41l35.76-20.64a2.58,2.58,0,0,0,1.28-2.22v-2.08a1.36,1.36,0,0,0-2-1.18L88.93,124.83A2.55,2.55,0,0,0,87.65,127.05Z"/><path class="cls-22" d="M60.17,211.7v76.86a8.68,8.68,0,0,0,13,7.52l100.19-57.73a16.6,16.6,0,0,0,8.3-14.37V147.12a8.69,8.69,0,0,0-13-7.52L68.46,197.33A16.59,16.59,0,0,0,60.17,211.7Z"/><text class="cls-23" transform="matrix(0.85, -0.51, 0, 1, 64.21, 278.32)">早安</text><g class="cls-24"><path class="cls-25" d="M203.25,500.45s-1.54,2,.12,5c4.42,7.9,20.85,13.21,23.57,16.7s3.77,11.91,2.73,18.38-4.53,59.83-4.53,59.83H248s-5-73.08-4.05-81.38,5.7-12.87,3.33-17.21Z"/></g><g class="cls-26"><path class="cls-27" d="M247.24,478.43a14.24,14.24,0,0,0,1.39,8.14c2.08,3.65,11,15.3,10.82,21.8s-5.08,92.48-5.08,92.48H276.9s-6.18-78-4.51-89.08,2.62-7.41,3.13-15.49Z"/></g><path class="cls-28" d="M274.87,489.68A35.16,35.16,0,0,1,273.4,483c-4.83-66.3,3.51-92.37-9.12-96.52-7.57-2.5-9.49,28.41-9.49,28.41s5.77,44.41,8.5,65.73c-1-.74-6.84-3.5-7.18-3.89-1-1.12-5-6.28-7.85-6.92-1.08-.24-2.42,1.72-2.58,3.64-.23,2.94,3.22,11.6,10.83,20.49,3.49,4.06,6,6.89,8.1,8.61C267.16,504.64,278.47,504.71,274.87,489.68Z"/><path class="cls-16" d="M274.55,488.21c-.35-1.2-.94-8.56-1.15-11.39-1.09-15,1.18-37.65.29-50.52-3.06-44.11,3.41-73.33-14.8-77.89-7.73-1.93-9.16,60.1-9.16,60.1s5.66,42.45,8.39,63.77c-.95.3-2.34-.85-2.76-1.16-3-2.26-6.55-2.68-8.7-.64s1.76,10.28,9.93,18.66c3.85,3.95,6.07,5.81,8.58,6.91C268.15,497.35,276.86,496.08,274.55,488.21Z"/><path class="cls-29" d="M225.9,420.35s7.08,68.46,4.65,72.49c-2.25,3.72-14.68,3.41-18.88,2.34-1.46-.37-5.56-3.37-6.91-2.71-2.07,1-1.78,6.59-.55,8.54,4.89,7.73,23.15,11.67,32.41,13.52,6.07,1.21,13.11-5.28,9.76-20.77-2.21-10.25,7.49-27.68-2-73.41C243.33,415.13,225.9,420.35,225.9,420.35Z"/><path class="cls-16" d="M225.53,417.37s7.09,68.45,4.65,72.49c-2.24,3.71-14.67,3.4-18.88,2.33-1.46-.37-4.43-1.47-5.79-.81-2.07,1-2.89,4.69-1.66,6.64,4.89,7.73,23.78,9.76,33.21,10.34,5.17.31,11.59-3.2,9.6-13.43s9.67-31.83.21-77.56C245.79,412.14,225.53,417.37,225.53,417.37Z"/><path class="cls-16" d="M281.29,266s4.47,38.51,9.77,51c.4.92,2.82,2.15,2.81,4s0,7.56-1.49,8.63c-.79.57-3.87-.49-3.87-.49l-6.61-10-11.14-39.66Z"/><path class="cls-30" d="M216.49,284.1S207.11,330,203.38,436.74c-.31,8.78,21.68,14.92,32.09,15.65,13.74,1,34.06-11.89,34.06-11.89l-3.65-81.11,8.05,79.22s25.05-12.73,24.73-17.14c-8-112.88-10.58-117.3-26.29-138.54C263.69,271.19,216.49,284.1,216.49,284.1Z"/><path class="cls-31" d="M210.3,256.24c1.21,4.14,1.51,16.37,6.25,22.51,2.53,3.28,12.62,22.65,22.4,22.65,11.14,0,29.2-15.54,29.09-20.92-.05-2.71,1.64-6.3,4.31-9.33,2.13-2.43,5.26-20.89,5.35-21.39C277.7,249.76,205.81,240.93,210.3,256.24Z"/><path class="cls-15" d="M216.49,284.1S207.11,330,203.38,436.74a7,7,0,0,0,2.41,5.12c.78-41.22,11.37-135.41,14-158.62C217.73,283.76,216.49,284.1,216.49,284.1Z"/><path class="cls-15" d="M205.84,439.71s5.87-90.67,9.28-95.06,1-6.11,2.21-12,4.54-5.68,4.63-8.15c.28-7.58-4.41-8.87-2.23-15.92.67-2.18,5.58-6.35,2.84-14.5s-2.74-12-2.74-12l-3.34,2.12L205,432.86Z"/><path class="cls-16" d="M277.7,213.3s10.39,47,10.39,50.7S270.35,284,267,283.07,277.7,213.3,277.7,213.3Z"/><path class="cls-31" d="M210.3,256.24c1.21,4.14,1.51,16.37,6.25,22.51,2.53,3.28,12.62,22.65,22.4,22.65,11.14,0,29.2-15.54,29.09-20.92-.05-2.71,1.64-6.3,4.31-9.33,2.13-2.43,5.26-20.89,5.35-21.39C277.7,249.76,205.81,240.93,210.3,256.24Z"/><path class="cls-15" d="M219.13,281.09c-4.54-4.82-3.82-8.41-4.65-11.13-.7-2.32-2.3-14.65-2.75-18.24a4.05,4.05,0,0,0-1.43,4.52c1.21,4.14,1.51,16.37,6.25,22.51.65.85,1.82,2.79,3.36,5.19C220,282.51,220.31,282.34,219.13,281.09Z"/><path class="cls-32" d="M279.35,207.88c-1.51-3.53-19.56-19.44-24.68-18.42-1.94.39-4.58,1.95-7.66,2.29-1.27,2.54-6.57,5.78-9.95,7.12-3,1.2-3.09-3-5.79-2.77-13,4.54-21.77,10.58-23.51,12.86s.05,40,3,55c1,5.13,16,13.31,16.67,13.63,5.07,2.44,14.31,2.74,21.52-.81,0,0,28.11-12.85,31.76-18.83C283.58,253.21,280.67,211,279.35,207.88Z"/><path class="cls-15" d="M215.06,209.31c4-3.34,10.18-9.22,18.22-12.36a2.38,2.38,0,0,0-2-.85c-13,4.54-21.77,10.58-23.51,12.86-.5.64-.71,4-.7,8.88A59.43,59.43,0,0,1,215.06,209.31Z"/><path class="cls-16" d="M272.35,271.15c-7.62,7.51-27.15,18.43-36.36,18.43s-15.37-5.61-19-10.05c-.26.13-.5,2.1-1.12,5.68-.34,1.94-1,5.31-.57,5.84,2.64,3.07,14,13.13,22.79,13.12,10,0,35-15.63,34.91-20.82C272.91,280.15,272.18,276,272.35,271.15Z"/><path class="cls-15" d="M217.09,279.3c-.46.25-.63,2.33-1.25,5.91-.34,1.94-1.05,5.16-.72,5.78.6,1.13,6.7,6.4,5.74,5.2-1.52-1.89-.87-13.4-.87-13.4A36.16,36.16,0,0,1,217.09,279.3Z"/><path class="cls-16" d="M137.34,267.44c1.2.08,3.4-.74,4.77-.51,7.51,1.27,29.83,6,36.35,2.93,7.71-3.67,19.34-10.49,11-18.37-5.46-5.19-22,5.21-22,5.21s-13.13,4.53-23.24,2c-1.8-.45-3.91-2.93-5.22-5.27s-1.62-3.69-2.46-4.73c-.38-.46-2.42-2.08-1.74,1.66.46,2.51.38,3.07,0,3.39-1.41,1.12-2.2-.56-6.33.36a15.31,15.31,0,0,0-6.41,2.76c-.38.24-1.3,1.44.1,1.78,1.22.3,4.76-1.57,5-.74s-5.84,6.11-5.84,6.11a1.26,1.26,0,0,0-.22,1.42l.57,1.2a2.63,2.63,0,0,0,2.13,1.28c2-.09,5.79-2.07,7.81-2.06C133.06,265.87,135.85,267.34,137.34,267.44Z"/><path class="cls-15" d="M122.59,257.43a19.84,19.84,0,0,1,7.42-2.17c2.33-.12,3.9.64,5.11.21a2.91,2.91,0,0,0,1.34-2.16c0-.78-1-3.77-.57-5.14-1.09-.63-1.47.14-1.09,2.2.46,2.51.38,3.07,0,3.39-1.41,1.12-2.2-.56-6.33.36a15.31,15.31,0,0,0-6.41,2.76c-.33.2-1.05,1.12-.35,1.59A1.93,1.93,0,0,1,122.59,257.43Z"/><path class="cls-15" d="M127.76,259.23c.18-.3,0-1.36-.76-1.45a.27.27,0,0,1,.08.07l0,.07c.18.72-5.84,6.11-5.84,6.11a1.26,1.26,0,0,0-.22,1.42l.1.23C122.2,264.83,126.7,261.11,127.76,259.23Z"/><path class="cls-33" d="M253.16,182.82a7.9,7.9,0,0,1-3.12-.15c-2.59-.66-2.45-3.19-2.52-4.87s1.11-4.56,1.34-5.24c3.33-9.64,7.38-45.28-29.28-31.72-5.34,2-10.58,6.94-8.32,21.18.62,4,4.06,6.32,3.17,9.49s4.06,15.21,11,17.74c1.62.59,4.57-.09,5.37.65a2.41,2.41,0,0,1,.23,3.23,16.15,16.15,0,0,1-2,2.58c2.84-.36,10.54-1.47,13.72-3.12C246.26,190.76,251.82,186.31,253.16,182.82Z"/><path class="cls-15" d="M217.84,178.81c-1.86-4.58-1.12-4.51.55-7.85,1.54-3.09-4.41-1.65-7.49-11.67.09.87.2,1.78.36,2.73.62,4,4.06,6.32,3.17,9.49s4.06,15.21,11,17.74a7.74,7.74,0,0,0,2.49.27h0C226.4,188.81,219.7,183.4,217.84,178.81Z"/><path class="cls-16" d="M208.86,153.76c.08,2.55,1.41,6.69,3.87,8.88s4.67,4.75,6,6.11c1.73,1.77,4.13-6.31,7.3-.05,1.89,3.71-1.64,8.53-2.61,9.6s-7.57,14,0,21,11.09,7.88,7,13.64-3.42,16.21,4.15,18.51,16.24-4.8,19.06-9.33c4.66-7.48,16.51-6.24,19.65-9.41,6.79-6.87,8.43-17.64,4.24-25.19-2.79-5-15.61-9-11.95-15.45,3.54-6.25-4-12.53-6.19-20.24A24.73,24.73,0,0,0,235,134.75c-13.68.29-13.65,5.15-13.65,5.15S208.5,141.21,208.86,153.76Z"/><path class="cls-15" d="M215.3,144.88c5.56-3.44,6-3.12,6-5,0,0-12.81,1.32-12.45,13.86.08,2.55,1.41,6.69,3.87,8.88s4.67,4.75,6,6.11c.5.52,1.07.19,1.69-.38l-1.39-1C209.64,160.5,209.66,148.39,215.3,144.88Z"/><path class="cls-15" d="M223.66,195.61c-2.5-3.57-.46-14.73.24-17.9-.19.25-.36.46-.48.59-1,1.07-7.57,14,0,21,.64.6,1.39,1.28,2,1.79C225.39,201.13,226.27,199.35,223.66,195.61Z"/><path class="cls-34" d="M220.94,169.26s1.55-1.32,2.2-.59a4.45,4.45,0,0,1,1.25,4.21,18.64,18.64,0,0,1-1.07,2.79s2.57-2.66,2.12-4.78-1.38-3.12-2.35-3.22S220.94,169.26,220.94,169.26Z"/><path class="cls-16" d="M165,220.46s0,0,.06,0A.15.15,0,0,0,165,220.46Z"/><path class="cls-16" d="M165.1,220.59a.65.65,0,0,1,.11.22A.76.76,0,0,0,165.1,220.59Z"/><path class="cls-16" d="M134.72,248.49a.14.14,0,0,0,0-.06A.14.14,0,0,1,134.72,248.49Z"/><path class="cls-16" d="M121.51,257.52a.75.75,0,0,1,.07-.12A.75.75,0,0,0,121.51,257.52Z"/><path class="cls-16" d="M134.67,248.89s0-.1,0-.15S134.67,248.84,134.67,248.89Z"/><path class="cls-16" d="M121.83,257.06l.06-.06Z"/><path class="cls-16" d="M121.66,257.27l.07-.09Z"/><path class="cls-16" d="M134.68,249.45c0-.1,0-.2,0-.29C134.66,249.25,134.67,249.35,134.68,249.45Z"/><path class="cls-16" d="M165.22,220.86a1.68,1.68,0,0,1,.06.36A1.93,1.93,0,0,0,165.22,220.86Z"/><path class="cls-16" d="M134.7,249.7c0,.2.05.42.1.67a19.73,19.73,0,0,1,.3,2.09,19.73,19.73,0,0,0-.3-2.09A6.06,6.06,0,0,1,134.7,249.7Z"/><path class="cls-16" d="M127.05,257.83a.18.18,0,0,1,.06.09l0-.07Z"/><path class="cls-16" d="M121.4,258a.66.66,0,0,1,0-.14A.66.66,0,0,0,121.4,258Z"/><path class="cls-16" d="M121.55,258.33a.42.42,0,0,1-.1-.17A.42.42,0,0,0,121.55,258.33Z"/><path class="cls-15" d="M141.88,265.48c-.78-.21-3.53.85-4.53.79s-4-.95-4.43-.88c-.25,0-1.17.31-1.85.51l.49,0c1.5,0,4.29,1.47,5.78,1.57,1.2.08,3.4-.74,4.77-.51,7.09,1.2,27.34,5.5,35.09,3.38C184.71,265.11,142.66,265.7,141.88,265.48Z"/><path class="cls-16" d="M121.42,257.78a.5.5,0,0,1,0-.13A.5.5,0,0,0,121.42,257.78Z"/><path class="cls-15" d="M121.73,257.18l.1-.12A1.27,1.27,0,0,0,121.73,257.18Z"/><path class="cls-15" d="M121.46,257.65s0-.09.05-.13S121.48,257.6,121.46,257.65Z"/><path class="cls-15" d="M121.41,257.9a.49.49,0,0,1,0-.12A.49.49,0,0,0,121.41,257.9Z"/><path class="cls-15" d="M121.69,258.47h0a.62.62,0,0,1-.14-.14A.62.62,0,0,0,121.69,258.47Z"/><path class="cls-15" d="M121.58,257.4l.08-.13A.57.57,0,0,0,121.58,257.4Z"/><path class="cls-15" d="M122.91,256.29l.55-.34Z"/><path class="cls-15" d="M121.45,258.16a.61.61,0,0,1,0-.12A.61.61,0,0,0,121.45,258.16Z"/><path class="cls-15" d="M165.21,220.81s0,0,0,.05A.43.43,0,0,0,165.21,220.81Z"/><path class="cls-15" d="M135.06,248a.63.63,0,0,0-.32.42A.66.66,0,0,1,135.06,248Z"/><path class="cls-15" d="M165.28,221.24v0Z"/><path class="cls-15" d="M122.67,256.45l-.63.43-.15.12.15-.12Z"/><path class="cls-15" d="M134.66,249.16c0-.1,0-.18,0-.27C134.67,249,134.66,249.06,134.66,249.16Z"/><path class="cls-15" d="M134.7,249.7c0-.09,0-.16,0-.25C134.69,249.54,134.69,249.61,134.7,249.7Z"/><path class="cls-15" d="M134.68,248.74c0-.09,0-.17,0-.25C134.71,248.57,134.69,248.65,134.68,248.74Z"/><path class="cls-15" d="M165,220.5l.08.09A.34.34,0,0,0,165,220.5Z"/><path class="cls-15" d="M122.59,257.43a19.84,19.84,0,0,1,7.42-2.17c2.33-.12,3.9.64,5.11.21a2.91,2.91,0,0,0,1.34-2.16c0-.78-1-3.77-.57-5.13h0a2.06,2.06,0,0,0-.34-.16h0a.55.55,0,0,0-.25,0h-.11l-.08,0a.66.66,0,0,0-.32.42.14.14,0,0,1,0,.06c0,.08,0,.16,0,.25s0,.1,0,.15,0,.17,0,.27,0,.19,0,.29,0,.16,0,.25a6.06,6.06,0,0,0,.1.67,19.73,19.73,0,0,1,.3,2.09c.05.81-.07,1.1-.32,1.3-1.41,1.12-2.2-.56-6.33.36a16.5,16.5,0,0,0-5,1.83l-.55.34-.24.16-.63.43-.15.12-.06.06-.1.12-.07.09-.08.13a.75.75,0,0,0-.07.12s0,.08-.05.13a.5.5,0,0,0,0,.13.49.49,0,0,0,0,.12.66.66,0,0,0,0,.14.61.61,0,0,0,0,.12.42.42,0,0,0,.1.17.62.62,0,0,0,.14.14A1.93,1.93,0,0,1,122.59,257.43Z"/><path class="cls-15" d="M121.53,263.79l.68-.61Z"/><path class="cls-15" d="M123.71,261.78l1.1-1.07Z"/><path class="cls-15" d="M124.81,260.71c.37-.36.72-.72,1-1C125.53,260,125.18,260.35,124.81,260.71Z"/><polygon class="cls-15" points="121.16 265.68 121.16 265.68 121.05 265.45 121.16 265.68"/><path class="cls-15" d="M127.11,257.92h0c.06.23-.49.91-1.27,1.74C126.62,258.83,127.17,258.15,127.11,257.92Z"/><path class="cls-15" d="M127,257.79h0l0,.05A.1.1,0,0,0,127,257.79Z"/><path class="cls-15" d="M127.76,259.23c.18-.3,0-1.35-.76-1.44a.1.1,0,0,1,0,0l0,0,0,.07h0c.06.23-.49.91-1.27,1.74-.31.33-.66.69-1,1l-1.1,1.07-1.5,1.4-.68.61-.26.24a1.26,1.26,0,0,0-.22,1.42l.1.23C122.2,264.83,126.7,261.11,127.76,259.23Z"/><path class="cls-35" d="M217.35,239.22l-8.95,6c.62,7.29,1.42,14.14,2.32,18.81.85,4.38,11.9,11,15.53,13C221.72,274.44,217.35,239.22,217.35,239.22Z"/><path class="cls-36" d="M207.76,209s-10.52,17.63-15,23-16.32,18.57-17,19.41c-1,1.36-2.93,35.27,5.16,37.55s34.33-38.66,36-46.92S217.2,211.08,207.76,209Z"/><path class="cls-15" d="M175.18,273c.61,7.8,2.23,14.94,5.8,15.95a3.87,3.87,0,0,0,2.5-.35C178.34,289.19,176,277.88,175.18,273Z"/><path class="cls-15" d="M212.17,212a7.51,7.51,0,0,0-4.41-3s-10.52,17.63-15,23l-1.58,1.87C196.66,228.87,207.87,215.94,212.17,212Z"/><rect class="cls-37" x="-75.97" y="-12.2" width="915.11" height="547.12"/></svg>